<?xml version="1.0" encoding="utf-8"?>
<!-- Generator: Adobe Illustrator 24.3.0, SVG Export Plug-In . SVG Version: 6.00 Build 0)  -->
<svg version="1.1" id="Layer_1" xmlns="http://www.w3.org/2000/svg" xmlns:xlink="http://www.w3.org/1999/xlink" x="0px" y="0px"
	 viewBox="0 0 24 21.6" style="enable-background:new 0 0 24 21.6;" xml:space="preserve">
<style type="text/css">
	.st0{fill:#FFFFFF;}
</style>
<path class="st0" d="M23.474,4.446c-0.455-0.556-1.163-0.894-1.895-0.894H6.191l-0.48-1.788C5.433,0.725,4.473,0,3.361,0H0.784
	C0.354,0,0,0.338,0,0.749C0,1.16,0.353,1.499,0.784,1.499h2.577c0.379,0,0.708,0.242,0.808,0.604l3.082,11.744
	c0.278,1.039,1.238,1.764,2.35,1.764h10.081c1.111,0,2.097-0.725,2.35-1.764l1.895-7.442C24.105,5.726,23.954,5.002,23.474,4.446
	L23.474,4.446z M22.388,6.064l-1.895,7.442c-0.101,0.363-0.429,0.604-0.808,0.604H9.602c-0.379,0-0.708-0.242-0.808-0.604
	L6.595,5.074H21.58c0.253,0,0.505,0.121,0.657,0.314C22.388,5.581,22.463,5.823,22.388,6.064L22.388,6.064z"/>
<path class="st0" d="M10.133,16.575c-1.44,0-2.627,1.135-2.627,2.512S8.693,21.6,10.133,21.6c1.44,0.001,2.627-1.135,2.627-2.512
	C12.761,17.711,11.573,16.575,10.133,16.575L10.133,16.575z M10.133,20.079c-0.581,0-1.036-0.435-1.036-0.991
	c0-0.556,0.455-0.991,1.036-0.991c0.581,0,1.036,0.435,1.036,0.991C11.169,19.62,10.689,20.079,10.133,20.079z"/>
<path class="st0" d="M18.825,16.575c-1.44,0-2.627,1.135-2.627,2.512c0,1.377,1.187,2.512,2.627,2.512
	c1.44,0,2.627-1.135,2.627-2.512C21.428,17.711,20.265,16.575,18.825,16.575z M18.825,20.079c-0.581,0-1.036-0.435-1.036-0.991
	c0-0.556,0.455-0.991,1.036-0.991c0.581,0,1.036,0.435,1.036,0.991C19.861,19.62,19.381,20.079,18.825,20.079z"/>
</svg>
