<?xml version="1.0" encoding="utf-8"?>
<!-- Generator: Adobe Illustrator 24.3.0, SVG Export Plug-In . SVG Version: 6.00 Build 0)  -->
<svg version="1.1" id="Layer_1" xmlns="http://www.w3.org/2000/svg" xmlns:xlink="http://www.w3.org/1999/xlink" x="0px" y="0px"
	 viewBox="0 0 20 18" style="enable-background:new 0 0 20 18;" xml:space="preserve">
<style type="text/css">
	.st0{fill:#43464E;}
</style>
<path class="st0" d="M19.561,3.705c-0.379-0.463-0.969-0.745-1.579-0.745H5.159l-0.4-1.49C4.527,0.604,3.728,0,2.801,0H0.653
	C0.295,0,0,0.282,0,0.625c0,0.342,0.294,0.625,0.653,0.625h2.148c0.316,0,0.59,0.201,0.674,0.503l2.569,9.786
	c0.232,0.866,1.031,1.47,1.958,1.47h8.401c0.926,0,1.748-0.604,1.958-1.47l1.579-6.202C20.088,4.772,19.962,4.168,19.561,3.705
	L19.561,3.705z M18.657,5.054l-1.579,6.202c-0.084,0.302-0.358,0.503-0.674,0.503H8.002c-0.316,0-0.59-0.201-0.674-0.503
	L5.496,4.229h12.487c0.211,0,0.421,0.101,0.548,0.262C18.657,4.651,18.719,4.852,18.657,5.054L18.657,5.054z"/>
<path class="st0" d="M8.444,13.812c-1.2,0-2.189,0.946-2.189,2.094S7.244,18,8.444,18c1.2,0.001,2.19-0.945,2.19-2.093
	S9.644,13.812,8.444,13.812L8.444,13.812z M8.444,16.732c-0.484,0-0.864-0.363-0.864-0.826c0-0.463,0.379-0.826,0.864-0.826
	c0.484,0,0.864,0.363,0.864,0.826C9.307,16.35,8.907,16.732,8.444,16.732z"/>
<path class="st0" d="M15.688,13.812c-1.2,0-2.189,0.946-2.189,2.094c0,1.147,0.99,2.094,2.189,2.094c1.2,0,2.19-0.946,2.19-2.094
	C17.857,14.759,16.888,13.812,15.688,13.812z M15.688,16.732c-0.484,0-0.864-0.363-0.864-0.826c0-0.463,0.379-0.826,0.864-0.826
	c0.485,0,0.864,0.363,0.864,0.826C16.551,16.35,16.151,16.732,15.688,16.732z"/>
</svg>
