<?xml version="1.0" encoding="utf-8"?>
<!-- Generator: Adobe Illustrator 24.3.0, SVG Export Plug-In . SVG Version: 6.00 Build 0)  -->
<svg version="1.1" id="Layer_1" xmlns="http://www.w3.org/2000/svg" xmlns:xlink="http://www.w3.org/1999/xlink" x="0px" y="0px"
	 viewBox="0 0 31.181 29.927" style="enable-background:new 0 0 31.181 29.927;" xml:space="preserve">
<style type="text/css">
	.st0{fill:#1DCF65;}
	.st1{fill:url(#SVGID_1_);}
	.st2{fill:#FFFFFF;}
</style>
<path class="st0" d="M29.102,23.252c0.027,0.318-0.221,0.592-0.538,0.592H2.549c-0.316,0-0.564-0.272-0.538-0.59L3.876,0.5
	C3.899,0.218,4.133,0,4.414,0h22.209c0.28,0,0.514,0.216,0.537,0.498L29.102,23.252z"/>
<linearGradient id="SVGID_1_" gradientUnits="userSpaceOnUse" x1="24.001" y1="4.4384" x2="5.641" y2="25.8713" gradientTransform="matrix(1 0 0 -1 0 31.1758)">
	<stop  offset="0" style="stop-color:#52D67A"/>
	<stop  offset="1" style="stop-color:#5AEE87"/>
</linearGradient>
<path class="st1" d="M31.179,29.189c0.033,0.397-0.278,0.738-0.672,0.738H0.674c-0.393,0-0.703-0.339-0.672-0.735L2.144,1.935
	c0.028-0.354,0.32-0.627,0.672-0.627h25.46c0.351,0,0.643,0.272,0.672,0.625L31.179,29.189z"/>
<path class="st2" d="M15.003,21.283c-3.883,0-7.042-3.832-7.042-8.542c0-0.245,0.197-0.444,0.44-0.444s0.44,0.199,0.44,0.444
	c0,4.22,2.764,7.654,6.163,7.654c3.398,0,6.162-3.434,6.162-7.654c0-0.245,0.197-0.444,0.44-0.444c0.243,0,0.44,0.199,0.44,0.444
	C22.045,17.451,18.886,21.283,15.003,21.283z"/>
<path class="st2" d="M19.338,12.622c-0.113,0-0.225-0.043-0.311-0.13c-0.172-0.174-0.172-0.455,0-0.628l2.279-2.302
	c0.082-0.083,0.194-0.13,0.311-0.13c0.117,0,0.229,0.047,0.311,0.13l2.257,2.28c0.172,0.174,0.172,0.455,0,0.628
	c-0.172,0.173-0.45,0.174-0.622,0l-1.946-1.966l-1.968,1.988C19.563,12.578,19.451,12.622,19.338,12.622z"/>
</svg>
